<svg id="Logo_Product" xmlns="http://www.w3.org/2000/svg" width="346.363" height="92" viewBox="0 0 346.363 92">
  <rect id="Rectangle_10" data-name="Rectangle 10" width="346" height="92" fill="none"/>
  <g id="logo_Kreon" transform="translate(139.363 -19.989)">
    <path id="Path_6587" data-name="Path 6587" d="M33,391.1c.2-1.742.42-3.483.6-5.226q.811-7.876,1.6-15.739.712-7.01,1.42-14.023.848-8.335,1.7-16.754h14.6l-2.077,19.258.16.073c.151-.24.3-.477.443-.721q5.145-8.99,10.274-17.99a1.158,1.158,0,0,1,1.174-.688c4.986.026,9.972.013,14.958.015.243,0,.487.024.857.044-.192.318-.326.546-.465.771q-7.177,11.511-14.369,23.013a1.61,1.61,0,0,0-.16,1.65q5.3,13.118,10.56,26.257c.092.229.178.461.293.754H57.159q-3.536-11.08-7.077-22.184h-.221c-.755,7.389-1.511,14.777-2.266,22.238H33Z" transform="translate(-33 -312.831)" fill="#0f6244"/>
    <path id="Path_6588" data-name="Path 6588" d="M320,477.553c.174-1.924.331-3.85.523-5.772q.707-7.087,1.44-14.174l1.582-15.591,1.442-14.159.616-6.032h12.736c-.213,2.188-.426,4.361-.638,6.534l.165.062a6.641,6.641,0,0,1,.336-.6,31.13,31.13,0,0,1,2.924-4.082,9.5,9.5,0,0,1,14.824,1.52,16.533,16.533,0,0,1,2.534,7.648,42.463,42.463,0,0,1-1.945,18.135,18.172,18.172,0,0,1-5.016,7.943,10.771,10.771,0,0,1-9.023,2.912,8.017,8.017,0,0,1-6.01-4.442c-.181-.327-.342-.665-.568-1.111a4.424,4.424,0,0,0-.162.6q-.786,7.758-1.555,15.516c-.168,1.7-.3,3.4-.453,5.094Zm24.081-38.283a27.927,27.927,0,0,0-.755-3.958,2.281,2.281,0,0,0-4.071-.743,6.817,6.817,0,0,0-1.26,2.2,24.541,24.541,0,0,0-1.171,9.721,7.22,7.22,0,0,0,.481,2.111,2.331,2.331,0,0,0,4.177.691,8.341,8.341,0,0,0,1.321-2.5A32.14,32.14,0,0,0,344.081,439.27Z" transform="translate(-276.637 -382.095)" fill="#0f6244"/>
    <path id="Path_6589" data-name="Path 6589" d="M1342.161,357.912c-.08.2-.171.406-.237.614a5.405,5.405,0,1,1-.073-3.415c.116.327.211.662.316.994Zm-9.56-.953a4.135,4.135,0,1,0,1.2-2.949A4.126,4.126,0,0,0,1332.6,356.959Z" transform="translate(-1135.167 -314.251)" fill="#0f6244"/>
    <path id="Path_6591" data-name="Path 6591" d="M1067.664,427.19h13.741c-.453,4.506-.906,8.982-1.359,13.508h4.879c.453-4.5.92-8.979,1.383-13.5h13.731c-1.33,13.087-2.657,26.141-3.988,39.247h-13.739c.482-4.789.962-9.568,1.447-14.388h-4.878c-.488,4.8-.977,9.582-1.468,14.4H1063.68Q1065.674,446.812,1067.664,427.19Z" transform="translate(-907.953 -387.477)" fill="#0f6244"/>
    <path id="Path_6592" data-name="Path 6592" d="M816,445.074c.285-6.24,1.388-11.484,4.635-16.047,4.1-5.768,9.85-8.15,16.8-7.7a18.224,18.224,0,0,1,5.06,1.077,13.18,13.18,0,0,1,8.56,10.146c1.7,7.761.665,15.2-3.777,21.864-4.034,6.047-10.016,8.355-17.151,7.88a14.48,14.48,0,0,1-8.834-3.451,15.427,15.427,0,0,1-4.968-9.877C816.1,447.436,816.06,445.873,816,445.074Zm12.238-.724a12.674,12.674,0,0,0,.919,5.362,4.245,4.245,0,0,0,4.7,2.609,5.963,5.963,0,0,0,4.811-3.672,20.622,20.622,0,0,0,2.087-11.683,5.927,5.927,0,0,0-4.156-5.4,4.154,4.154,0,0,0-5.188,1.594,13.148,13.148,0,0,0-1.511,2.592A22.9,22.9,0,0,0,828.238,444.35Z" transform="translate(-697.696 -382.454)" fill="#0f6244"/>
    <path id="Path_6593" data-name="Path 6593" d="M618.051,446.18h-17.7c-.6,3.45,1.626,5.992,5.32,6.182a22.373,22.373,0,0,0,10.079-2.183l1.126-.479c-.16,1.634-.3,3.176-.463,4.715-.162,1.624-.313,3.25-.512,4.869a1.014,1.014,0,0,1-.453.736,34.209,34.209,0,0,1-15.963,1.882c-6.257-.863-10.182-4.524-11.61-10.59-1.794-7.615-1.038-15.017,3.064-21.805a16.617,16.617,0,0,1,14.656-8.482c6.5-.115,10.809,3.362,12.333,9.827a34.5,34.5,0,0,1,.543,11.007C618.353,443.273,618.2,444.669,618.051,446.18ZM599.82,438.1H608.3c-.075-1.547-.068-3.046-.249-4.524a2.276,2.276,0,0,0-1.716-2.085c-2.345-.532-4.341.06-5.461,2.2A11.148,11.148,0,0,0,599.82,438.1Z" transform="translate(-503.26 -382.239)" fill="#0f6244"/>
    <path id="Path_6604" data-name="Path 6604" d="M1351.8,374.263v-5.277h2.729a4,4,0,0,1,1.16.13,1.238,1.238,0,0,1,.648.481,1.494,1.494,0,0,1-.454,2.135,2,2,0,0,1-.575.208,1.617,1.617,0,0,1,.426.2,1.57,1.57,0,0,1,.262.278,2.034,2.034,0,0,1,.23.329l.787,1.521h-1.851l-.875-1.616a1.26,1.26,0,0,0-.3-.407.694.694,0,0,0-.4-.122h-.151v2.146Zm1.645-3.145h.691a2.455,2.455,0,0,0,.434-.072.441.441,0,0,0,.266-.166.5.5,0,0,0,.1-.3.484.484,0,0,0-.164-.394.972.972,0,0,0-.6-.137h-.719Z" transform="translate(-1152.541 -329.078)" fill="#0f6244"/>
  </g>
</svg>
