<svg xmlns="http://www.w3.org/2000/svg" width="347" height="93" viewBox="0 0 347 93">
  <g id="Logo_Product" transform="translate(0.5 0.5)">
    <rect id="Прямоугольник_10" data-name="Прямоугольник 10" width="346" height="92" fill="#f8f8f8" stroke="#222731" stroke-width="1" stroke-dasharray="12 6" opacity="0"/>
    <g id="Сгруппировать_7272" data-name="Сгруппировать 7272" transform="translate(123.124 -2.924)">
      <path id="Контур_9178" data-name="Контур 9178" d="M29.5-47.47v24.58H10.074V-47.47H5.236V7.153h4.838V-18.364H29.5V7.153h4.838V-47.47ZM60.561,8.167c9.832,0,15.684-6.945,15.684-17.947V-30.537c0-11-5.852-17.947-15.684-17.947S44.876-41.539,44.876-30.537V-9.78C44.876,1.222,50.729,8.167,60.561,8.167Zm0-4.682c-7.1,0-10.768-4.838-10.768-13.265V-30.537c0-8.427,3.668-13.265,10.768-13.265s10.768,4.838,10.768,13.265V-9.78C71.329-1.353,67.662,3.485,60.561,3.485Zm40.03-28.794H91.617V-42.944H113.31V-47.47H86.779V7.153h13.812c9.286,0,15.684-6.086,15.684-16.465C116.276-19.378,109.877-25.308,100.591-25.308Zm0,27.935H91.617v-23.41h8.974c6.321,0,10.768,3.9,10.768,11.471C111.36-1.431,106.912,2.627,100.591,2.627Zm29.184.078V-18.364h19.274v-4.448H129.775v-20.21h20.6V-47.47H124.937V7.153h26.3V2.705ZM184.632-47.47v24.58H165.2V-47.47h-4.838V7.153H165.2V-18.364h19.43V7.153h4.838V-47.47Z" transform="translate(18 70.723)" fill="#fff"/>
      <path id="Контур_9179" data-name="Контур 9179" d="M7.593-20.648c-3.661,0-5.824,2.263-5.824,6.057v1.8c0,3.927,2.163,6.223,5.824,6.223,3.627,0,5.79-2.3,5.79-6.223v-1.8C13.383-18.385,11.22-20.648,7.593-20.648Zm4.859,7.854c0,3.328-1.8,5.291-4.859,5.291S2.7-9.466,2.7-12.794v-1.8c0-3.228,1.83-5.125,4.892-5.125s4.859,1.9,4.859,5.125Zm-2.2-2.463a2.321,2.321,0,0,0-2.562-2.529H5.529v8.453h1v-3.295h.865l1.9,3.295h1.131l-2-3.361A2.333,2.333,0,0,0,10.255-15.257ZM6.528-16.788H7.693a1.4,1.4,0,0,1,1.564,1.531,1.44,1.44,0,0,1-1.564,1.631H6.528Z" transform="translate(209.192 38.129)" fill="#fff"/>
    </g>
  </g>
</svg>
